<?xml version="1.0" encoding="UTF-8"?>
<svg width="175px" height="97px" viewBox="0 0 175 97" version="1.1" xmlns="http://www.w3.org/2000/svg" xmlns:xlink="http://www.w3.org/1999/xlink">
    <!-- Generator: Sketch 52 (66869) - http://www.bohemiancoding.com/sketch -->
    <title>Page 1</title>
    <desc>Created with Sketch.</desc>
    <defs>
        <polygon id="path-1" points="0 45.66205 0 0.981 175.001 0.981 175.001 45.66205 175.001 90.3431 0 90.3431"></polygon>
    </defs>
    <g id="Symbols" stroke="none" stroke-width="1" fill="none" fill-rule="evenodd">
        <g id="LOGO" transform="translate(0.000000, -1.000000)">
            <g id="Page-1">
                <g id="Group-3" transform="translate(0.000000, 0.019500)">
                    <mask id="mask-2" fill="white">
                        <use xlink:href="#path-1"></use>
                    </mask>
                    <g id="Clip-2"></g>
                    <path d="M87.5,90.3431 C39.175,90.3431 0,70.3381 0,45.6621 C0,20.9841 39.175,0.9801 87.5,0.9801 C135.824,0.9801 175.001,20.9841 175.001,45.6621 C175.001,70.3381 135.824,90.3431 87.5,90.3431 Z" id="Fill-1" fill="#000000" mask="url(#mask-2)"></path>
                </g>
                <polygon id="Fill-4" fill="#000000" points="19.9903 98.0195 19.9903 72.1195 40.4663 81.0875"></polygon>
                <path d="M87.5,48.8906 C80.635,48.8906 75.07,47.4546 75.07,45.6816 C75.07,43.9086 80.635,42.4716 87.5,42.4716 C94.365,42.4716 99.931,43.9086 99.931,45.6816 C99.931,47.4546 94.365,48.8906 87.5,48.8906" id="Fill-6" fill="#FFFFFF"></path>
                <path d="M13.6524,45.6816 C13.6524,26.1776 46.7794,10.3086 87.4994,10.3086 C100.3814,10.3086 112.5024,11.9016 123.0564,14.6906 L124.2834,13.7806 C113.4034,10.7856 100.8584,9.0686 87.4994,9.0686 C46.0954,9.0686 12.4124,25.4926 12.4124,45.6816 C12.4124,57.5586 24.0784,68.1286 42.1074,74.8226 L43.2424,73.9786 C25.2894,67.5196 13.6524,57.2396 13.6524,45.6816" id="Fill-8" fill="#FFFFFF"></path>
                <path d="M26.375,45.6816 C26.375,54.3826 36.986,62.0726 53.116,66.6446 L54.313,65.7556 C38.231,61.4236 27.615,54.0426 27.615,45.6816 C27.615,32.3766 54.478,21.5516 87.5,21.5516 C95.904,21.5516 103.904,22.2556 111.17,23.5196 L112.494,22.5366 C104.856,21.1116 96.402,20.3106 87.5,20.3106 C53.795,20.3106 26.375,31.6916 26.375,45.6816" id="Fill-10" fill="#FFFFFF"></path>
                <path d="M42.7324,45.6816 C42.7324,38.9526 63.2334,33.2696 87.5004,33.2696 C90.9594,33.2696 94.3364,33.3886 97.5914,33.6076 L99.1444,32.4526 C95.4374,32.1756 91.5374,32.0296 87.5004,32.0296 C61.7014,32.0296 41.4914,38.0256 41.4914,45.6816 C41.4914,50.9176 50.9534,55.3786 65.1914,57.6736 L66.6284,56.6076 C52.5454,54.4886 42.7324,50.3356 42.7324,45.6816" id="Fill-12" fill="#FFFFFF"></path>
                <path d="M131.7699,16.1326 L130.6149,16.9906 C149.2109,23.4196 161.3479,33.8816 161.3479,45.6816 C161.3479,65.1856 128.2199,81.0536 87.4989,81.0536 C74.1149,81.0536 61.5619,79.3296 50.7249,76.3356 L49.5039,77.2436 C60.6579,80.4476 73.6409,82.2946 87.4989,82.2946 C128.9039,82.2946 162.5899,65.8686 162.5899,45.6816 C162.5899,33.5596 150.4369,22.8006 131.7699,16.1326 Z" id="Fill-14" fill="#AC1E8C"></path>
                <path d="M87.4998,69.8106 C78.5738,69.8106 70.1058,69.0136 62.4888,67.5956 L61.1728,68.5746 C69.1508,70.1606 78.0778,71.0516 87.4998,71.0516 C121.2048,71.0516 148.6268,59.6706 148.6268,45.6816 C148.6268,36.7636 137.4728,28.9106 120.6598,24.3856 L119.4458,25.2866 C136.2188,29.5686 147.3848,37.1076 147.3848,45.6816 C147.3848,58.9866 120.5218,69.8106 87.4998,69.8106 Z" id="Fill-16" fill="#AC1E8C"></path>
                <path d="M108.4218,33.4766 L106.9728,34.5526 C121.7998,36.6016 132.2688,40.8746 132.2688,45.6816 C132.2688,52.4096 111.7678,58.0926 87.4998,58.0926 C83.4998,58.0926 79.6048,57.9356 75.8828,57.6466 L74.3508,58.7856 C78.5038,59.1406 82.9108,59.3336 87.4998,59.3336 C113.3008,59.3336 133.5098,53.3356 133.5098,45.6816 C133.5098,40.2756 123.4278,35.7006 108.4218,33.4766 Z" id="Fill-18" fill="#AC1E8C"></path>
                <path d="M87.5,46.915 C85.764,46.915 84.354,46.363 84.354,45.686 C84.354,45.006 85.764,44.455 87.5,44.455 C89.237,44.455 90.645,45.006 90.645,45.686 C90.645,46.363 89.237,46.915 87.5,46.915" id="Fill-20" fill="#231F20"></path>
            </g>
        </g>
    </g>
</svg>